<svg width="367" height="296" viewBox="0 0 367 296" fill="none" xmlns="http://www.w3.org/2000/svg">
<path d="M209.839 295.281C206.51 295.29 203.314 293.979 200.951 291.637C198.588 289.294 197.252 286.111 197.236 282.786V273.754C187.769 274.813 155.352 274.568 146.06 273.076V282.425C146.035 285.747 144.696 288.925 142.335 291.266C139.974 293.607 136.783 294.92 133.456 294.92C130.13 294.92 126.939 293.607 124.578 291.266C122.217 288.925 120.878 285.747 120.853 282.425V264.07C108.267 257.086 97.7756 246.874 90.4602 234.488C83.1448 222.102 79.271 207.99 79.2384 193.609C79.2384 168.951 90.4263 145.948 109.934 130.499C122.617 120.42 138.027 114.359 154.185 113.093C156.378 112.922 158.585 112.835 160.744 112.835C168.349 112.835 202.665 114.008 211.275 116.483L230.907 97.0241C231.195 96.7342 231.564 96.5367 231.965 96.4568C232.367 96.3768 232.783 96.4182 233.161 96.5754C233.542 96.7267 233.868 96.9895 234.096 97.3292C234.325 97.6689 234.445 98.0697 234.441 98.479V101.573L238.264 97.7911C238.552 97.5008 238.92 97.303 239.322 97.2229C239.723 97.1429 240.139 97.1842 240.516 97.3416C240.897 97.4929 241.224 97.7556 241.453 98.0955C241.681 98.4354 241.802 98.8364 241.798 99.2459V133.819C251.649 142.689 259.158 153.851 263.658 166.313C268.158 178.776 269.51 192.154 267.596 205.264C265.682 218.374 260.56 230.809 252.683 241.468C244.807 252.128 234.42 260.682 222.442 266.372V282.786C222.426 286.111 221.09 289.294 218.727 291.637C216.364 293.979 213.168 295.29 209.839 295.281ZM198.227 272.632V282.786C198.252 285.846 199.486 288.772 201.661 290.927C203.836 293.082 206.776 294.291 209.839 294.291C212.903 294.291 215.842 293.082 218.017 290.927C220.192 288.772 221.426 285.846 221.451 282.786V265.747L221.734 265.613C235.174 259.243 246.583 249.277 254.695 236.822C265.031 220.928 269.33 201.863 266.813 183.077C264.296 164.292 255.129 147.027 240.972 134.408L240.807 134.26V99.2459C240.811 99.0331 240.749 98.8244 240.63 98.6478C240.511 98.4713 240.341 98.3353 240.143 98.2583C239.945 98.174 239.727 98.1513 239.516 98.1931C239.306 98.2349 239.113 98.3392 238.963 98.4925L233.45 103.946V98.479C233.454 98.2662 233.392 98.0575 233.273 97.8809C233.154 97.7044 232.984 97.5684 232.786 97.4914C232.588 97.4073 232.369 97.3847 232.158 97.4268C231.947 97.4689 231.754 97.5736 231.604 97.7273L211.552 117.602L211.267 117.513C203.263 115.011 168.407 113.824 160.744 113.824C158.61 113.824 156.43 113.91 154.263 114.08C138.301 115.33 123.078 121.318 110.549 131.274C91.2804 146.535 80.2291 169.255 80.2291 193.609C80.2621 207.863 84.1152 221.848 91.3883 234.111C98.6614 246.374 109.089 256.469 121.588 263.346L121.844 263.487V282.425C121.869 285.485 123.104 288.41 125.279 290.565C127.454 292.719 130.393 293.928 133.456 293.928C136.52 293.928 139.459 292.719 141.634 290.565C143.809 288.41 145.043 285.485 145.069 282.425V271.892L145.656 272.002C154.006 273.571 189.169 273.819 197.667 272.705L198.227 272.632Z" fill="#075E54"/>
<path d="M142.676 58.9455L87.8139 75.4142C86.0689 75.9401 84.6043 77.1364 83.7418 78.7402C82.8793 80.3441 82.6895 82.2244 83.2141 83.968C83.7386 85.7115 84.9346 87.1758 86.5393 88.0392C88.144 88.9025 90.0262 89.0942 91.7724 88.5722L139.783 74.1572L140.788 73.8554C140.992 68.6785 142.398 63.6199 144.895 59.0791C144.582 58.9383 144.247 58.8513 143.905 58.8218C143.491 58.7818 143.073 58.8238 142.676 58.9455Z" fill="#6C63FF"/>
<path d="M90.8235 92.0834C90.0953 92.0816 89.386 91.8513 88.7959 91.4249C88.2058 90.9986 87.7647 90.3978 87.5351 89.7075L84.1044 79.3671C83.9612 78.9353 83.9044 78.4795 83.9375 78.0257C83.9706 77.572 84.0928 77.1293 84.2972 76.7227C84.5016 76.3162 84.7842 75.9539 85.1288 75.6565C85.4734 75.359 85.8733 75.1323 86.3057 74.9893L130.958 60.208C131.39 60.0649 131.846 60.0082 132.301 60.0412C132.755 60.0742 133.198 60.1963 133.605 60.4004C134.012 60.6045 134.375 60.8867 134.672 61.2308C134.97 61.575 135.197 61.9743 135.341 62.4061L138.771 72.7465C139.057 73.597 138.999 74.5251 138.612 75.3341C138.224 76.1432 137.536 76.7698 136.694 77.0811C136.653 77.0965 136.611 77.1111 136.569 77.1248L91.9178 91.9055C91.565 92.023 91.1955 92.0831 90.8235 92.0834Z" fill="#075E54"/>
<path d="M174.447 40.5817C165.435 40.5852 156.778 44.0913 150.308 50.3579C143.838 56.6245 140.063 65.1598 139.783 74.1573C139.773 74.5087 139.768 74.865 139.768 75.2213C139.768 82.0723 141.802 88.7695 145.612 94.466C149.423 100.162 154.839 104.602 161.176 107.224C167.512 109.846 174.485 110.532 181.212 109.195C187.939 107.859 194.118 104.56 198.968 99.7151C203.818 94.8707 207.121 88.6985 208.459 81.9791C209.797 75.2597 209.111 68.2948 206.486 61.9653C203.861 55.6357 199.416 50.2258 193.713 46.4195C188.01 42.6133 181.306 40.5817 174.447 40.5817ZM174.447 108.871C165.515 108.862 156.952 105.314 150.636 99.005C144.32 92.6965 140.768 84.1429 140.759 75.2213C140.759 74.7611 140.769 74.3058 140.788 73.8555C141.057 67.264 143.259 60.8966 147.121 55.5452C150.983 50.1938 156.335 46.0944 162.511 43.7568C168.687 41.4192 175.414 40.9464 181.857 42.3974C188.3 43.8483 194.173 47.1589 198.747 51.9175C203.321 56.6761 206.394 62.6728 207.584 69.1619C208.773 75.6509 208.027 82.3461 205.438 88.4149C202.848 94.4837 198.53 99.6583 193.02 103.295C187.51 106.932 181.051 108.871 174.447 108.871Z" fill="#075E54"/>
<path d="M203.676 75.221C203.676 82.9643 200.597 90.3905 195.115 95.8658C189.634 101.341 182.199 104.417 174.447 104.417C166.695 104.417 159.26 101.341 153.779 95.8658C148.297 90.3905 145.218 82.9643 145.218 75.221C145.218 74.2956 145.262 73.3851 145.346 72.4845C146.051 65.0114 149.609 58.0963 155.284 53.1752C160.958 48.2541 168.312 45.7049 175.818 46.0571C183.325 46.4092 190.407 49.6356 195.594 55.0664C200.782 60.4971 203.676 67.7148 203.676 75.221Z" fill="#B1E5AA"/>
<path d="M183.151 77.161C182.442 76.2305 181.51 75.4936 180.441 75.0183C179.122 74.4631 177.76 74.0162 176.369 73.6822V65.7349C178.508 66.057 180.514 66.9707 182.16 68.3724L183.775 64.9332C182.846 64.1066 181.78 63.4485 180.624 62.9885C179.343 62.4704 177.999 62.1259 176.626 61.9641V57.936H172.886V62.0037C171.442 62.1658 170.049 62.633 168.799 63.3745C167.67 64.0418 166.72 64.9722 166.029 66.0862C165.371 67.1734 165.029 68.4229 165.044 69.6937C164.979 71.0708 165.379 72.4297 166.178 73.5535C166.914 74.5265 167.886 75.2963 169.002 75.7903C170.342 76.3618 171.727 76.8203 173.144 77.161V84.7767C170.62 84.5866 168.214 83.628 166.253 82.0303L164.638 85.4745C165.735 86.3804 166.982 87.0872 168.323 87.5627C169.793 88.0881 171.329 88.4079 172.886 88.5129V92.5063H176.626V88.4386C178.704 88.2119 180.652 87.3196 182.18 85.8951C182.853 85.2506 183.384 84.4736 183.741 83.6133C184.097 82.7529 184.271 81.828 184.251 80.8971C184.313 79.5639 183.926 78.2484 183.151 77.161ZM173.144 72.8409C172.233 72.565 171.386 72.1108 170.652 71.5048C170.361 71.2465 170.131 70.927 169.979 70.5693C169.826 70.2117 169.755 69.8248 169.77 69.4364C169.743 68.555 170.067 67.6989 170.672 67.0561C171.342 66.3818 172.206 65.9336 173.144 65.7745V72.8409ZM178.717 83.3714C178.085 84.0188 177.262 84.4471 176.369 84.5936V78.0418C177.223 78.2707 178.021 78.6696 178.717 79.2146C178.981 79.4396 179.19 79.721 179.33 80.038C179.47 80.355 179.536 80.6994 179.525 81.0456C179.559 81.8948 179.271 82.7257 178.717 83.3714Z" fill="#37BD25"/>
<path d="M92.4158 133.992C91.65 133.991 90.9059 133.737 90.2991 133.27C89.6922 132.804 89.2565 132.15 89.0594 131.411L87.1916 124.349C86.9578 123.462 87.086 122.518 87.5481 121.724C88.0101 120.931 88.7683 120.353 89.6563 120.118L148.581 104.565C149.47 104.333 150.415 104.462 151.209 104.925C152.003 105.387 152.581 106.145 152.817 107.032L154.4 113.014L154.103 113.037C138.991 114.211 124.531 119.684 112.435 128.809L112.349 128.85L93.2956 133.878C93.0085 133.953 92.7128 133.992 92.4158 133.992Z" fill="#075E54"/>
<path d="M82.6567 168.872C75.7445 167.852 69.1338 165.355 63.2751 161.552C60.3726 159.669 57.6856 157.474 55.2623 155.006C52.8705 152.569 50.5824 149.8 49.3977 146.554C48.2579 143.552 48.3166 140.227 49.5618 137.267C50.79 134.324 53.1361 131.988 56.0858 130.771C59.0531 129.589 62.6382 129.463 65.5261 130.757C66.9022 131.36 68.093 132.317 68.9763 133.531C69.3869 134.091 69.6909 134.722 69.8731 135.391C70.0423 135.998 70.0577 136.637 69.9179 137.251C69.7486 137.865 69.4499 138.434 69.042 138.923C68.6341 139.411 68.1264 139.807 67.5529 140.083C66.2906 140.73 64.923 141.147 63.5142 141.314C62.0973 141.507 60.0618 141.682 58.9227 140.546C58.6882 140.321 58.5038 140.05 58.3814 139.749C58.2958 139.519 58.2665 139.271 58.296 139.028C58.2794 139.135 58.3648 138.794 58.3599 138.807C58.3419 138.858 58.2639 138.981 58.3748 138.792C58.4094 138.73 58.448 138.67 58.4902 138.612C58.4526 138.661 58.3699 138.742 58.5176 138.603C58.6396 138.469 58.7964 138.373 58.9705 138.324C59.0391 138.304 59.1086 138.288 59.1774 138.269C59.3522 138.221 59.0032 138.272 59.182 138.266C59.251 138.264 59.3208 138.265 59.3896 138.262C59.565 138.254 59.2166 138.214 59.3846 138.257C59.4499 138.273 59.5145 138.289 59.5788 138.309C59.7186 138.353 59.4799 138.207 59.5746 138.316C59.6856 138.445 59.4581 138.192 59.5842 138.316C59.647 138.377 59.7061 138.443 59.7614 138.511C59.9801 138.727 60.2751 138.848 60.5825 138.848C60.8899 138.848 61.1849 138.727 61.4037 138.511C61.615 138.29 61.7329 137.996 61.7329 137.691C61.7329 137.385 61.615 137.091 61.4037 136.871C60.2586 135.453 57.9967 135.803 56.8383 137.001C55.361 138.53 55.946 140.952 57.383 142.285C59.0098 143.795 61.3138 143.9 63.4064 143.647C65.1749 143.478 66.8983 142.991 68.4939 142.211C70.0793 141.433 71.3193 140.095 71.9737 138.456C72.2691 137.581 72.3753 136.654 72.285 135.735C72.1948 134.816 71.9103 133.927 71.4503 133.127C69.6028 129.657 65.7771 127.878 61.9957 127.57C60.0488 127.418 58.0911 127.653 56.2357 128.261C54.3803 128.87 52.6641 129.84 51.1864 131.115C48.3383 133.676 46.5845 137.233 46.2876 141.049C45.9576 145.006 47.4945 148.848 49.7353 152.042C52.0812 155.286 54.8806 158.178 58.0481 160.629C64.2404 165.567 71.5041 168.989 79.2577 170.62C80.1799 170.811 81.1071 170.974 82.0393 171.109C82.3359 171.181 82.6487 171.137 82.9141 170.987C83.1795 170.836 83.3775 170.59 83.4678 170.299C83.5474 170.002 83.5069 169.686 83.3551 169.419C83.2034 169.152 82.9525 168.956 82.6567 168.872L82.6567 168.872Z" fill="#075E54"/>
<path d="M193.325 118.458C183.197 118.316 173.102 118.572 163.038 119.229C159.599 119.453 156.623 120.667 156.623 122.708C156.623 124.415 159.575 126.414 163.038 126.188C173.097 125.532 183.192 125.275 193.325 125.418C201.585 125.535 201.58 118.575 193.325 118.458Z" fill="#B1E5AA"/>
<path d="M178.356 125.073C177.262 125.073 151.552 125.032 151.552 121.485C151.552 117.938 177.262 117.897 178.356 117.897C179.451 117.897 205.161 117.938 205.161 121.485C205.161 125.032 179.451 125.073 178.356 125.073ZM152.557 121.485C153.261 122.56 162.711 124.083 178.356 124.083C194.001 124.083 203.452 122.56 204.156 121.485C203.452 120.409 194.001 118.886 178.356 118.886C162.711 118.886 153.261 120.409 152.557 121.485V121.485Z" fill="#3F3D56"/>
<path d="M259.928 218.328C265.619 218.17 272.703 217.973 278.16 213.991C279.785 212.757 281.12 211.182 282.071 209.379C283.023 207.575 283.568 205.585 283.669 203.548C283.78 200.403 282.643 197.659 280.466 195.821C277.616 193.416 273.454 192.851 268.969 194.168L273.616 160.247L270.205 159.78L264.742 199.659L267.59 198.353C270.893 196.84 275.426 196.07 278.244 198.448C278.935 199.07 279.474 199.842 279.818 200.706C280.163 201.569 280.303 202.501 280.228 203.427C280.145 204.943 279.735 206.423 279.028 207.766C278.32 209.11 277.332 210.286 276.129 211.213C271.882 214.312 266.236 214.711 259.832 214.89L259.928 218.328Z" fill="#3F3D56"/>
<path d="M250.496 163.173H231.952V166.612H250.496V163.173Z" fill="#075E54"/>
<path d="M100.807 149.81C99.982 149.807 99.1845 149.511 98.5577 148.974C97.931 148.438 97.516 147.696 97.3871 146.881L96.2552 139.666C96.1138 138.758 96.3386 137.832 96.8803 137.09C97.4219 136.347 98.2363 135.85 99.1445 135.707L159.353 126.284C160.261 126.143 161.189 126.367 161.932 126.908C162.674 127.449 163.172 128.263 163.315 129.17L164.447 136.386C164.589 137.293 164.364 138.22 163.822 138.962C163.281 139.704 162.466 140.201 161.558 140.344L101.35 149.767C101.17 149.795 100.989 149.81 100.807 149.81Z" fill="#075E54"/>
<path d="M75.8902 65.2487C89.8442 65.2487 101.156 53.9495 101.156 40.0113C101.156 26.0731 89.8442 14.7739 75.8902 14.7739C61.9361 14.7739 50.6241 26.0731 50.6241 40.0113C50.6241 53.9495 61.9361 65.2487 75.8902 65.2487Z" fill="#37BD25"/>
<path d="M90.1954 46.5413C91.0029 46.2591 91.7406 45.8076 92.3588 45.217C92.7679 44.7959 93.0798 44.2905 93.2727 43.7364C93.4657 43.1822 93.535 42.5926 93.4759 42.0089C93.4415 41.5928 93.3113 41.1903 93.0954 40.8328C92.8795 40.4754 92.5838 40.1726 92.2313 39.9482C91.317 39.3866 90.1087 39.4078 88.8888 39.9726L88.748 30.1212L87.7574 30.1353L87.9228 41.7167L88.677 41.2226C89.5516 40.6506 90.8082 40.2358 91.7122 40.7913C91.9358 40.9384 92.1224 41.1349 92.2576 41.3658C92.3927 41.5966 92.4728 41.8555 92.4915 42.1222C92.5331 42.5571 92.4805 42.9959 92.3372 43.4086C92.1939 43.8214 91.9633 44.1984 91.661 44.5142C90.587 45.5786 88.9973 45.9353 87.1829 46.2615L87.3584 47.2355C88.323 47.0892 89.2724 46.8568 90.1954 46.5413Z" fill="#2F2E41"/>
<path d="M98.9505 29.4298L93.6742 30.2279L93.8225 31.2063L99.0988 30.4082L98.9505 29.4298Z" fill="#2F2E41"/>
<path d="M82.2963 31.9479L77.02 32.7461L77.1684 33.7245L82.4446 32.9264L82.2963 31.9479Z" fill="#2F2E41"/>
<path d="M92.5872 149.368C91.6786 149.366 90.7921 149.088 90.0456 148.571C89.2992 148.053 88.7282 147.321 88.4087 146.471L70.9885 99.8715C68.8593 94.1564 69.0866 87.831 71.6207 82.2831C74.1547 76.7351 78.7885 72.4178 84.5054 70.2783L98.6701 64.9952C99.2178 64.7895 99.8008 64.6941 100.386 64.7143C100.97 64.7346 101.545 64.8702 102.078 65.1133C102.608 65.3502 103.087 65.6904 103.484 66.1141C103.882 66.5377 104.191 67.0362 104.394 67.5806L136.663 128.439C136.873 128.988 136.972 129.573 136.954 130.16C136.936 130.747 136.803 131.325 136.561 131.86C136.319 132.395 135.973 132.877 135.544 133.279C135.114 133.68 134.61 133.993 134.059 134.198L94.1454 149.085C93.6472 149.272 93.1194 149.368 92.5872 149.368Z" fill="#075E54"/>
<path d="M94.3723 66.5983L126.39 109.366L104.725 67.0472C104.546 66.5535 104.272 66.0997 103.917 65.712C103.563 65.3242 103.135 65.01 102.659 64.7873C102.183 64.5646 101.667 64.4378 101.142 64.4141C100.617 64.3904 100.092 64.4703 99.5981 64.6492L94.3723 66.5983Z" fill="#E6E6E6"/>
<path d="M145.069 99.0775L87.9008 95.3992C86.9996 95.3412 86.1188 95.1065 85.3085 94.7085C84.4982 94.3105 83.7743 93.757 83.1782 93.0795C82.582 92.4021 82.1253 91.614 81.8341 90.7602C81.5429 89.9065 81.4229 89.0038 81.4809 88.1037C81.5389 87.2036 81.7739 86.3237 82.1724 85.5143C82.5708 84.705 83.125 83.9819 83.8032 83.3864C84.4814 82.791 85.2704 82.3348 86.1251 82.0439C86.9799 81.753 87.8836 81.6331 88.7847 81.6911L145.953 85.3691C146.375 85.3962 146.787 85.5061 147.167 85.6925C147.546 85.8789 147.885 86.1381 148.165 86.4553C148.444 86.7726 148.658 87.1417 148.794 87.5415C148.931 87.9413 148.987 88.3641 148.96 88.7856L148.49 96.0744C148.435 96.9257 148.043 97.7203 147.402 98.2835C146.76 98.8467 145.921 99.1323 145.069 99.0775Z" fill="#6C63FF"/>
<path d="M129.793 101.436C129.717 101.436 129.642 101.433 129.566 101.428H129.566L82.6222 98.4081C82.1678 98.3789 81.7235 98.2605 81.3148 98.0598C80.9061 97.8591 80.541 97.58 80.2403 97.2383C79.9397 96.8967 79.7093 96.4992 79.5625 96.0686C79.4156 95.638 79.3551 95.1828 79.3844 94.7288L80.1871 82.2793C80.2164 81.8253 80.3349 81.3815 80.5359 80.9733C80.7369 80.5651 81.0164 80.2005 81.3585 79.9002C81.7006 79.5999 82.0985 79.3698 82.5296 79.2231C82.9607 79.0765 83.4165 79.016 83.871 79.0453L130.814 82.0654C131.732 82.1254 132.588 82.5465 133.195 83.2363C133.802 83.9261 134.11 84.8281 134.052 85.7446L133.249 98.1944C133.205 98.8615 132.969 99.5017 132.57 100.038C132.17 100.574 131.624 100.984 130.997 101.218C130.612 101.362 130.204 101.436 129.793 101.436Z" fill="#075E54"/>
<path d="M75.6005 23.2285C78.9244 20.3731 83.4888 22.9275 87.3006 22.4803C90.9474 22.0525 93.827 18.785 94.5626 15.3137C95.4208 11.2638 93.3164 7.20647 90.2145 4.68146C86.8173 1.91594 82.3117 1.12203 78.0421 1.63367C73.1485 2.22007 68.6732 4.49853 64.6575 7.25445C60.7814 9.83218 57.2168 12.8493 54.035 16.2455C51.1859 19.3886 48.7719 23.1351 48.001 27.3647C47.3005 31.2084 47.8354 35.4678 50.1103 38.724C51.3166 40.393 52.9331 41.7232 54.8039 42.5865C56.7545 43.5432 58.8353 44.2272 60.7252 45.309C63.5826 46.9446 66.3597 50.3361 65.4646 53.8654C65.2727 54.6364 64.894 55.3484 64.3619 55.9388C63.7224 56.6478 62.5691 55.7109 63.2102 55.0001C64.3362 53.7515 64.2918 52.0864 63.6918 50.5958C62.9782 48.9161 61.7147 47.5282 60.1082 46.6596C58.13 45.5299 55.946 44.8326 53.9185 43.8035C51.9779 42.8635 50.2933 41.4691 49.0083 39.7389C46.5816 36.3705 45.8558 31.9867 46.4061 27.9313C47.0017 23.5427 49.2591 19.5549 52.0888 16.213C55.1684 12.5761 58.9512 9.49761 62.8157 6.73198C66.9624 3.76443 71.5436 1.25558 76.613 0.348167C81.0074 -0.438418 85.7706 0.0458533 89.6133 2.43789C93.2002 4.6707 95.9508 8.51157 96.2243 12.8034C96.3225 14.7561 95.898 16.6998 94.9945 18.4342C94.091 20.1687 92.7411 21.6314 91.0838 22.6717C89.3832 23.6882 87.406 24.1458 85.4311 23.9798C83.3199 23.8448 81.2066 23.199 79.0819 23.3783C78.1204 23.4366 77.2042 23.8064 76.472 24.4316C75.7458 25.0555 74.8803 23.8473 75.6005 23.2286V23.2285Z" fill="#075E54"/>
<path d="M366.348 295.513H0.588174C0.432024 295.512 0.282428 295.45 0.172173 295.34C0.0619178 295.229 0 295.08 0 294.924C0 294.768 0.0619178 294.618 0.172173 294.508C0.282428 294.397 0.432024 294.335 0.588174 294.334H366.348C366.505 294.334 366.655 294.396 366.765 294.507C366.876 294.617 366.938 294.767 366.938 294.924C366.938 295.08 366.876 295.23 366.765 295.34C366.655 295.451 366.505 295.513 366.348 295.513Z" fill="#3F3D56"/>
</svg>
