<svg width="80" height="80" viewBox="0 0 80 80" fill="none" xmlns="http://www.w3.org/2000/svg">
<rect x="0.45" y="0.45" width="79.1" height="79.1" rx="39.55" fill="white" stroke="#0F3D0A" stroke-width="0.9"/>
<path d="M69.7192 55.3037H52.5145C52.4942 55.3037 52.4748 55.2956 52.4604 55.2813C52.4461 55.2669 52.438 55.2475 52.438 55.2272C52.438 55.207 52.4461 55.1875 52.4604 55.1732C52.4748 55.1588 52.4942 55.1508 52.5145 55.1508H69.7192C69.7394 55.1508 69.7589 55.1588 69.7732 55.1732C69.7876 55.1875 69.7956 55.207 69.7956 55.2272C69.7956 55.2475 69.7876 55.2669 69.7732 55.2813C69.7589 55.2956 69.7394 55.3037 69.7192 55.3037Z" fill="black"/>
<path d="M60.4549 32.0095C61.4922 32.0095 62.333 31.169 62.333 30.1322C62.333 29.0953 61.4922 28.2548 60.4549 28.2548C59.4177 28.2548 58.5769 29.0953 58.5769 30.1322C58.5769 31.169 59.4177 32.0095 60.4549 32.0095Z" fill="#FFB8B8"/>
<path d="M60.6498 52.4255L59.7622 52.7268L58.1768 49.4477L59.4869 49.0029L60.6498 52.4255Z" fill="#FFB8B8"/>
<path d="M59.0432 52.6868L60.7551 52.1056L61.1212 53.183L58.3315 54.1302C58.2834 53.9888 58.2637 53.8392 58.2734 53.6901C58.2832 53.5409 58.3222 53.3952 58.3883 53.2612C58.4544 53.1271 58.5462 53.0074 58.6586 52.9089C58.771 52.8103 58.9017 52.7349 59.0432 52.6868Z" fill="#075E54"/>
<path d="M62.656 54.2758L61.7198 54.3229L61.0927 50.7353L62.4746 50.6658L62.656 54.2758Z" fill="#FFB8B8"/>
<path d="M61.038 54.0894L62.8437 53.9987L62.9008 55.1352L59.9583 55.283C59.9508 55.1338 59.9728 54.9845 60.023 54.8438C60.0732 54.703 60.1506 54.5735 60.2509 54.4627C60.3511 54.3518 60.4723 54.2618 60.6073 54.1978C60.7424 54.1337 60.8887 54.0969 61.038 54.0894Z" fill="#075E54"/>
<path d="M57.0829 42.3554C57.1669 42.2807 57.2334 42.1884 57.2779 42.0852C57.3223 41.982 57.3436 41.8703 57.3402 41.758C57.3368 41.6457 57.3088 41.5355 57.2582 41.4352C57.2075 41.3348 57.1355 41.2468 57.0472 41.1773L57.9398 38.5957L56.5641 38.9471L55.9273 41.3448C55.8204 41.5009 55.7744 41.6908 55.7982 41.8785C55.8219 42.0662 55.9137 42.2386 56.0561 42.3632C56.1986 42.4878 56.3818 42.5558 56.571 42.5543C56.7603 42.5529 56.9424 42.4821 57.0829 42.3554Z" fill="#FFB8B8"/>
<path d="M62.5684 53.1956C62.5563 53.1956 62.5442 53.195 62.5322 53.1937L61.2613 53.0592C61.1832 53.0513 61.1102 53.0168 61.0545 52.9615C60.9989 52.9062 60.9639 52.8334 60.9556 52.7554L59.9734 44.0026L59.2627 46.3978L60.5877 51.105C60.6012 51.153 60.6041 51.2033 60.5963 51.2524C60.5884 51.3016 60.57 51.3485 60.5422 51.3898C60.5145 51.4312 60.478 51.466 60.4355 51.4919C60.393 51.5178 60.3453 51.5342 60.2958 51.5399L59.0075 51.6879C58.9255 51.697 58.8429 51.6764 58.7747 51.63C58.7065 51.5835 58.6572 51.5142 58.6357 51.4345L57.228 46.1372C57.2164 46.0936 57.2135 46.0482 57.2195 46.0036L57.8522 41.2492L62.5712 41.6275L62.9124 52.8411C62.9138 52.8872 62.9059 52.933 62.8893 52.976C62.8726 53.0189 62.8475 53.0581 62.8154 53.0911C62.7834 53.1242 62.745 53.1505 62.7025 53.1684C62.6601 53.1864 62.6145 53.1956 62.5684 53.1956V53.1956Z" fill="#075E54"/>
<path d="M60.9385 42.4418C59.3576 42.4418 57.5676 41.8312 57.4592 41.7937L57.4279 41.7828L59.2114 32.6345L59.2442 32.6358C59.951 32.6645 61.8799 32.6792 61.8993 32.6793L61.9339 32.6796L62.6774 40.7528L62.8102 41.9337L62.794 41.9469C62.3392 42.3144 61.6607 42.4418 60.9385 42.4418Z" fill="#6C63FF"/>
<path d="M58.081 41.6492L56.9654 41.2L57.534 34.3249C57.5477 34.1554 57.5993 33.9912 57.685 33.8443C57.7707 33.6974 57.8882 33.5716 58.0291 33.4762L58.6161 33.0768C58.5995 33.0204 58.5965 32.9608 58.6074 32.903C58.6183 32.8451 58.6428 32.7907 58.6788 32.7441C58.7148 32.6976 58.7614 32.6602 58.8147 32.6352C58.8679 32.6101 58.9264 32.598 58.9852 32.5999L59.1533 32.6053C59.1853 32.5838 59.223 32.5724 59.2616 32.5727C59.3001 32.5729 59.3377 32.5849 59.3693 32.6069C59.401 32.6288 59.4252 32.6599 59.4389 32.6959C59.4526 32.7319 59.4551 32.7712 59.446 32.8087L59.4091 33.5371L58.081 41.6492Z" fill="#075E54"/>
<path d="M57.518 40.4161L56.0614 40.3548L56.5333 37.3208L56.9243 34.4659C56.9319 34.3634 56.9627 34.264 57.0143 34.175C57.0658 34.0861 57.1368 34.0099 57.2219 33.9522C57.3071 33.8946 57.4041 33.8569 57.5059 33.842C57.6077 33.8271 57.7115 33.8354 57.8096 33.8662C57.9623 33.9142 58.0934 34.0143 58.1797 34.1491C58.266 34.284 58.3021 34.4449 58.2817 34.6036L57.8856 37.6968L57.518 40.4161Z" fill="#075E54"/>
<path d="M59.826 41.7542L59.8161 41.7236C59.8093 41.7026 59.1529 39.5978 60.2513 37.086L60.8021 34.3476L61.2728 32.6281C61.2816 32.5974 61.2975 32.5691 61.3191 32.5456C61.3408 32.5221 61.3676 32.5039 61.3975 32.4926C61.4327 32.4804 61.4706 32.4789 61.5066 32.4881C61.5426 32.4974 61.5751 32.517 61.6 32.5446C61.9281 32.4483 62.2808 32.4836 62.5833 32.6429L63.2444 32.991C63.3914 33.0684 63.5085 33.1923 63.5774 33.3434C63.6464 33.4945 63.6632 33.6642 63.6253 33.8259L62.7218 37.6801L63.161 41.2801L59.826 41.7542Z" fill="#075E54"/>
<path d="M60.7856 40.27C60.8974 40.2821 61.0104 40.2696 61.1168 40.2334C61.2232 40.1971 61.3203 40.1379 61.4014 40.0601C61.4824 39.9822 61.5454 39.8875 61.5859 39.7827C61.6264 39.6779 61.6434 39.5654 61.6357 39.4533L63.6816 37.9383L62.9665 37.5994L60.7604 38.7354C60.5728 38.7608 60.4011 38.854 60.2778 38.9975C60.1544 39.141 60.088 39.3247 60.0911 39.5139C60.0942 39.7031 60.1666 39.8845 60.2946 40.0239C60.4226 40.1632 60.5973 40.2508 60.7856 40.27V40.27Z" fill="#FFB8B8"/>
<path d="M62.0686 39.5954L61.3776 38.3059L63.0818 37.1847L62.2502 34.2029C62.2169 34.0835 62.2085 33.9586 62.2257 33.8358C62.2429 33.7131 62.2852 33.5952 62.35 33.4895C62.4148 33.3839 62.5007 33.2927 62.6023 33.2217C62.7039 33.1507 62.8191 33.1014 62.9406 33.0769C63.1554 33.0341 63.3784 33.0707 63.5683 33.1798C63.7581 33.289 63.9019 33.4633 63.9729 33.6704L65.095 36.9675C65.1182 37.0355 65.1195 37.1089 65.0987 37.1776C65.078 37.2463 65.0363 37.3069 64.9794 37.3507L62.0686 39.5954Z" fill="#075E54"/>
<path d="M60.5875 30.529C60.3624 30.5583 60.1925 30.328 60.1138 30.1152C60.035 29.9023 59.975 29.6545 59.7792 29.5396C59.5118 29.3825 59.1697 29.5714 58.8639 29.5196C58.5185 29.461 58.294 29.0952 58.2764 28.7455C58.2588 28.3958 58.398 28.0594 58.5346 27.737L58.5823 28.1377C58.5759 28.0019 58.6045 27.8667 58.6653 27.7451C58.7261 27.6235 58.8172 27.5195 58.9297 27.4431L58.8682 28.0311C58.8813 27.95 58.9103 27.8722 58.9535 27.8023C58.9967 27.7324 59.0533 27.6718 59.12 27.6238C59.1867 27.5758 59.2623 27.5415 59.3423 27.5228C59.4224 27.504 59.5053 27.5013 59.5864 27.5147L59.5767 27.865C59.9756 27.8176 60.378 27.7702 60.778 27.8063C61.1781 27.8424 61.5809 27.9689 61.8842 28.2323C62.3377 28.6263 62.5034 29.275 62.4477 29.8731C62.3921 30.4711 62.1452 31.033 61.8878 31.5757C61.823 31.7123 61.7334 31.8664 61.5833 31.8838C61.4483 31.8994 61.3248 31.7866 61.2829 31.6575C61.2506 31.525 61.2518 31.3865 61.2865 31.2546C61.3245 31.053 61.3723 30.847 61.3367 30.6449C61.301 30.4429 61.1556 30.2433 60.9519 30.2186C60.7482 30.1938 60.5398 30.4266 60.6377 30.6068L60.5875 30.529Z" fill="#075E54"/>
<path d="M36.0173 51.1414L35.2863 50.8337L34.7848 47.1702H28.1063L27.5627 50.8187L26.9086 51.1456C26.8773 51.1613 26.8522 51.187 26.8374 51.2187C26.8226 51.2504 26.8189 51.2861 26.8269 51.3202C26.835 51.3542 26.8543 51.3845 26.8817 51.4062C26.9092 51.4279 26.9431 51.4397 26.9781 51.4397H35.9571C35.9929 51.4397 36.0277 51.4273 36.0554 51.4046C36.0832 51.3819 36.1022 51.3503 36.1093 51.3152C36.1164 51.2801 36.1111 51.2436 36.0944 51.2119C36.0776 51.1802 36.0504 51.1553 36.0173 51.1414Z" fill="#075E54"/>
<path d="M47.8852 47.6587H15.0787C14.9066 47.6583 14.7416 47.5897 14.6201 47.4679C14.4985 47.3461 14.4302 47.1811 14.4302 47.009V42.3845H48.5337V47.009C48.5337 47.1811 48.4654 47.3461 48.3438 47.4679C48.2223 47.5897 48.0573 47.6583 47.8852 47.6587Z" fill="#075E54"/>
<path d="M48.5683 44.5723H14.4006V24.7852C14.4008 24.5775 14.4834 24.3784 14.6303 24.2316C14.7772 24.0848 14.9764 24.0022 15.1841 24.0019H47.7848C47.9925 24.0022 48.1917 24.0848 48.3385 24.2316C48.4854 24.3784 48.5681 24.5775 48.5683 24.7852V44.5723Z" fill="#075E54"/>
<path d="M46.5272 43.1337H16.4408C16.2807 43.1335 16.1272 43.0698 16.0139 42.9566C15.9007 42.8434 15.837 42.69 15.8368 42.5299V26.0394C15.837 25.8794 15.9007 25.7259 16.0139 25.6127C16.1272 25.4995 16.2807 25.4358 16.4408 25.4356H46.5272C46.6873 25.4358 46.8408 25.4995 46.9541 25.6127C47.0673 25.7259 47.131 25.8794 47.1312 26.0394V42.5299C47.131 42.69 47.0673 42.8434 46.9541 42.9566C46.8408 43.0698 46.6873 43.1335 46.5272 43.1337Z" fill="white"/>
<path d="M46.2435 51.48H17.1102C17.09 51.48 17.0705 51.4719 17.0562 51.4576C17.0418 51.4433 17.0338 51.4238 17.0338 51.4036C17.0338 51.3833 17.0418 51.3638 17.0562 51.3495C17.0705 51.3352 17.09 51.3271 17.1102 51.3271H46.2435C46.2638 51.3271 46.2832 51.3352 46.2976 51.3495C46.3119 51.3638 46.32 51.3833 46.32 51.4036C46.32 51.4238 46.3119 51.4433 46.2976 51.4576C46.2832 51.4719 46.2638 51.48 46.2435 51.48Z" fill="black"/>
<path d="M43.6999 41.0847H19.2666C19.2463 41.0847 19.2269 41.0766 19.2125 41.0623C19.1982 41.048 19.1901 41.0285 19.1901 41.0082V29.3016C19.1901 29.2813 19.1982 29.2619 19.2125 29.2475C19.2269 29.2332 19.2463 29.2252 19.2666 29.2252C19.2869 29.2252 19.3063 29.2332 19.3207 29.2475C19.335 29.2619 19.3431 29.2813 19.3431 29.3016V40.9318H43.6999C43.7202 40.9318 43.7397 40.9399 43.754 40.9542C43.7683 40.9685 43.7764 40.988 43.7764 41.0082C43.7764 41.0285 43.7683 41.048 43.754 41.0623C43.7397 41.0766 43.7202 41.0847 43.6999 41.0847Z" fill="#3F3D56"/>
<path d="M24.4873 40.2475H22.265C22.2048 40.2474 22.1471 40.2235 22.1046 40.1809C22.062 40.1384 22.0381 40.0807 22.038 40.0206V36.9582C22.0381 36.8981 22.062 36.8404 22.1046 36.7979C22.1471 36.7553 22.2048 36.7314 22.265 36.7313H24.4873C24.5475 36.7314 24.6052 36.7553 24.6477 36.7979C24.6903 36.8404 24.7142 36.8981 24.7143 36.9582V40.0206C24.7142 40.0807 24.6903 40.1384 24.6477 40.1809C24.6052 40.2235 24.5475 40.2474 24.4873 40.2475Z" fill="#37BD25"/>
<path d="M28.5401 40.2466H26.3177C26.2576 40.2466 26.1999 40.2226 26.1573 40.1801C26.1148 40.1376 26.0908 40.0799 26.0908 40.0197V34.0528C26.0908 33.9926 26.1148 33.9349 26.1573 33.8924C26.1999 33.8499 26.2576 33.8259 26.3177 33.8259H28.5401C28.6002 33.8259 28.6579 33.8499 28.7005 33.8924C28.743 33.9349 28.767 33.9926 28.767 34.0528V40.0197C28.767 40.0799 28.743 40.1376 28.7005 40.1801C28.6579 40.2226 28.6002 40.2466 28.5401 40.2466Z" fill="#37BD25"/>
<path d="M32.5928 40.2475H30.3705C30.3103 40.2474 30.2526 40.2235 30.21 40.1809C30.1675 40.1384 30.1435 40.0807 30.1435 40.0206V36.9582C30.1435 36.8981 30.1675 36.8404 30.21 36.7979C30.2526 36.7553 30.3103 36.7314 30.3705 36.7313H32.5928C32.6529 36.7314 32.7106 36.7553 32.7532 36.7979C32.7957 36.8404 32.8197 36.8981 32.8197 36.9582V40.0206C32.8197 40.0807 32.7957 40.1384 32.7532 40.1809C32.7106 40.2235 32.6529 40.2474 32.5928 40.2475Z" fill="#37BD25"/>
<path d="M36.6455 40.2441H34.4232C34.3644 40.2454 34.3075 40.2233 34.2649 40.1827C34.2224 40.1421 34.1977 40.0863 34.1962 40.0275V32.8934C34.1977 32.8346 34.2224 32.7788 34.2649 32.7382C34.3075 32.6976 34.3644 32.6755 34.4232 32.6768H36.6455C36.7043 32.6755 36.7612 32.6976 36.8038 32.7382C36.8463 32.7788 36.871 32.8346 36.8725 32.8934V40.0275C36.871 40.0863 36.8463 40.1421 36.8038 40.1827C36.7612 40.2233 36.7043 40.2454 36.6455 40.2441Z" fill="#37BD25"/>
<path d="M40.6982 40.2432H38.4759C38.4157 40.2432 38.358 40.2193 38.3155 40.1767C38.2729 40.1342 38.249 40.0765 38.2489 40.0164V30.839C38.249 30.7789 38.2729 30.7212 38.3155 30.6786C38.358 30.6361 38.4157 30.6122 38.4759 30.6121H40.6982C40.7584 30.6122 40.8161 30.6361 40.8586 30.6786C40.9012 30.7212 40.9251 30.7789 40.9252 30.839V40.0164C40.9251 40.0765 40.9012 40.1342 40.8586 40.1767C40.8161 40.2193 40.7584 40.2432 40.6982 40.2432Z" fill="#37BD25"/>
<path d="M23.3774 35.8126C23.6308 35.8126 23.8362 35.6073 23.8362 35.354C23.8362 35.1007 23.6308 34.8954 23.3774 34.8954C23.124 34.8954 22.9186 35.1007 22.9186 35.354C22.9186 35.6073 23.124 35.8126 23.3774 35.8126Z" fill="#075E54"/>
<path d="M27.4302 32.8305C27.6835 32.8305 27.889 32.6252 27.889 32.3719C27.889 32.1186 27.6835 31.9133 27.4302 31.9133C27.1768 31.9133 26.9714 32.1186 26.9714 32.3719C26.9714 32.6252 27.1768 32.8305 27.4302 32.8305Z" fill="#075E54"/>
<path d="M31.4829 35.8126C31.7363 35.8126 31.9417 35.6073 31.9417 35.354C31.9417 35.1007 31.7363 34.8954 31.4829 34.8954C31.2295 34.8954 31.0241 35.1007 31.0241 35.354C31.0241 35.6073 31.2295 35.8126 31.4829 35.8126Z" fill="#075E54"/>
<path d="M35.5355 31.3791C35.7889 31.3791 35.9943 31.1737 35.9943 30.9204C35.9943 30.6671 35.7889 30.4618 35.5355 30.4618C35.2821 30.4618 35.0767 30.6671 35.0767 30.9204C35.0767 31.1737 35.2821 31.3791 35.5355 31.3791Z" fill="#075E54"/>
<path d="M39.5882 29.6939C39.8416 29.6939 40.047 29.4886 40.047 29.2353C40.047 28.982 39.8416 28.7767 39.5882 28.7767C39.3349 28.7767 39.1295 28.982 39.1295 29.2353C39.1295 29.4886 39.3349 29.6939 39.5882 29.6939Z" fill="#075E54"/>
<path d="M31.491 35.457L27.4287 32.4154L23.4219 35.4154L23.3301 35.2931L27.4287 32.2244L31.4717 35.2516L35.4893 30.8566L35.5054 30.85L39.558 29.2177L39.6152 29.3595L35.5787 30.9853L31.491 35.457Z" fill="#075E54"/>
<path d="M45.3886 27.7923C45.3465 27.7391 45.2912 27.697 45.2277 27.6698C45.1494 27.638 45.0686 27.6125 44.986 27.5934V27.1388C45.113 27.1572 45.2321 27.2095 45.3298 27.2897L45.4256 27.093C45.3705 27.0457 45.3072 27.008 45.2386 26.9817C45.1626 26.9521 45.0828 26.9324 45.0013 26.9232V26.6928H44.7793V26.9254C44.6935 26.9347 44.6108 26.9614 44.5367 27.0038C44.4697 27.042 44.4133 27.0952 44.3723 27.1589C44.3332 27.2211 44.3129 27.2926 44.3138 27.3652C44.3099 27.444 44.3336 27.5217 44.3811 27.586C44.4248 27.6416 44.4825 27.6857 44.5487 27.7139C44.6282 27.7466 44.7105 27.7728 44.7946 27.7923V28.2279C44.6447 28.217 44.502 28.1622 44.3855 28.0708L44.2896 28.2678C44.3548 28.3196 44.4288 28.36 44.5084 28.3872C44.5957 28.4173 44.6868 28.4356 44.7793 28.4416V28.67H45.0013V28.4373C45.1246 28.4244 45.2403 28.3733 45.331 28.2919C45.3709 28.255 45.4024 28.2106 45.4236 28.1614C45.4448 28.1121 45.4551 28.0592 45.4539 28.006C45.4576 27.9298 45.4346 27.8545 45.3886 27.7923ZM44.7946 27.5452C44.7405 27.5295 44.6902 27.5035 44.6466 27.4688C44.6294 27.454 44.6157 27.4358 44.6067 27.4153C44.5976 27.3949 44.5934 27.3727 44.5943 27.3505C44.5927 27.3001 44.6119 27.2511 44.6478 27.2144C44.6876 27.1758 44.7389 27.1502 44.7946 27.1411V27.5452ZM45.1254 28.1475C45.0879 28.1845 45.039 28.209 44.986 28.2174V27.8427C45.0367 27.8558 45.0841 27.8786 45.1254 27.9098C45.1411 27.9226 45.1535 27.9387 45.1618 27.9569C45.1701 27.975 45.174 27.9947 45.1733 28.0145C45.1754 28.0631 45.1582 28.1106 45.1254 28.1475Z" fill="#37BD25" fill-opacity="0.39"/>
</svg>
